<?xml version="1.0" encoding="UTF-8" standalone="no"?>
<!-- (c) ammap.com | SVG weather icons -->

<svg
   version="1.1"
   width="32.799999"
   height="34.673054"
   viewbox="0 0 64 64"
   id="svg722"
   sodipodi:docname="09d.svg"
   inkscape:version="1.2.2 (b0a8486541, 2022-12-01)"
   xmlns:inkscape="http://www.inkscape.org/namespaces/inkscape"
   xmlns:sodipodi="http://sodipodi.sourceforge.net/DTD/sodipodi-0.dtd"
   xmlns="http://www.w3.org/2000/svg"
   xmlns:svg="http://www.w3.org/2000/svg">
  <sodipodi:namedview
     id="namedview724"
     pagecolor="#ffffff"
     bordercolor="#000000"
     borderopacity="0.25"
     inkscape:showpageshadow="2"
     inkscape:pageopacity="0.0"
     inkscape:pagecheckerboard="0"
     inkscape:deskcolor="#d1d1d1"
     showgrid="false"
     inkscape:zoom="13.5"
     inkscape:cx="16.555556"
     inkscape:cy="12.111111"
     inkscape:window-width="1839"
     inkscape:window-height="1051"
     inkscape:window-x="-9"
     inkscape:window-y="-9"
     inkscape:window-maximized="1"
     inkscape:current-layer="svg722" />
  <defs
     id="defs705">
    <filter
       id="blur"
       width="1.4936709"
       height="1.5576254"
       x="-0.24683544"
       y="-0.22891989">
      <feGaussianBlur
         in="SourceAlpha"
         stdDeviation="3"
         id="feGaussianBlur690" />
      <feOffset
         dx="0"
         dy="4"
         result="offsetblur"
         id="feOffset692" />
      <feComponentTransfer
         id="feComponentTransfer696">
        <feFuncA
           type="linear"
           slope="0.05"
           id="feFuncA694" />
      </feComponentTransfer>
      <feMerge
         id="feMerge702">
        <feMergeNode
           id="feMergeNode698" />
        <feMergeNode
           in="SourceGraphic"
           id="feMergeNode700" />
      </feMerge>
    </filter>
  </defs>
  <g
     filter="url(#blur)"
     id="rainy-6"
     transform="translate(-15.5,-19.9)">
    <g
       transform="translate(20,10)"
       id="g711">
      <g
         id="g709">
        <path
           d="m 47.7,35.4 c 0,-4.6 -3.7,-8.2 -8.2,-8.2 -1,0 -1.9,0.2 -2.8,0.5 -0.3,-3.4 -3.1,-6.2 -6.6,-6.2 -3.7,0 -6.7,3 -6.7,6.7 0,0.8 0.2,1.6 0.4,2.3 -0.3,-0.1 -0.7,-0.1 -1,-0.1 -3.7,0 -6.7,3 -6.7,6.7 0,3.6 2.9,6.6 6.5,6.7 h 17.2 c 4.4,-0.5 7.9,-4 7.9,-8.4 z"
           fill="#57a0ee"
           stroke="#ffffff"
           stroke-linejoin="round"
           stroke-width="1.2"
           transform="translate(-20,-11)"
           id="path707" />
      </g>
    </g>
    <g
       transform="rotate(10,-247.3912,200.16581)"
       id="g719">
      <line
         class="am-weather-rain-1"
         fill="none"
         stroke="#91c0f8"
         stroke-dasharray="4, 4"
         stroke-linecap="round"
         stroke-width="2"
         transform="translate(-4,1)"
         x1="0"
         x2="0"
         y1="0"
         y2="8"
         id="line713" />
      <line
         class="am-weather-rain-2"
         fill="none"
         stroke="#91c0f8"
         stroke-dasharray="4, 4"
         stroke-linecap="round"
         stroke-width="2"
         transform="translate(0,-1)"
         x1="0"
         x2="0"
         y1="0"
         y2="8"
         id="line715" />
      <line
         class="am-weather-rain-1"
         fill="none"
         stroke="#91c0f8"
         stroke-dasharray="4, 4"
         stroke-linecap="round"
         stroke-width="2"
         transform="translate(4)"
         x1="0"
         x2="0"
         y1="0"
         y2="8"
         id="line717" />
    </g>
  </g>
</svg>
