<?xml version="1.0" encoding="UTF-8" standalone="no"?>
<!-- (c) ammap.com | SVG weather icons -->

<svg
   version="1.1"
   width="32.799999"
   height="39.369743"
   viewbox="0 0 64 64"
   id="svg899"
   sodipodi:docname="11d.svg"
   inkscape:version="1.2.2 (b0a8486541, 2022-12-01)"
   xmlns:inkscape="http://www.inkscape.org/namespaces/inkscape"
   xmlns:sodipodi="http://sodipodi.sourceforge.net/DTD/sodipodi-0.dtd"
   xmlns="http://www.w3.org/2000/svg"
   xmlns:svg="http://www.w3.org/2000/svg">
  <sodipodi:namedview
     id="namedview901"
     pagecolor="#ffffff"
     bordercolor="#000000"
     borderopacity="0.25"
     inkscape:showpageshadow="2"
     inkscape:pageopacity="0.0"
     inkscape:pagecheckerboard="0"
     inkscape:deskcolor="#d1d1d1"
     showgrid="false"
     inkscape:zoom="13.5"
     inkscape:cx="16.555556"
     inkscape:cy="15.518519"
     inkscape:window-width="1839"
     inkscape:window-height="1051"
     inkscape:window-x="-9"
     inkscape:window-y="-9"
     inkscape:window-maximized="1"
     inkscape:current-layer="svg899" />
  <defs
     id="defs882">
    <filter
       id="blur"
       width="1.4936709"
       height="1.4958505"
       x="-0.24683544"
       y="-0.1957535">
      <feGaussianBlur
         in="SourceAlpha"
         stdDeviation="3"
         id="feGaussianBlur867" />
      <feOffset
         dx="0"
         dy="4"
         result="offsetblur"
         id="feOffset869" />
      <feComponentTransfer
         id="feComponentTransfer873">
        <feFuncA
           type="linear"
           slope="0.05"
           id="feFuncA871" />
      </feComponentTransfer>
      <feMerge
         id="feMerge879">
        <feMergeNode
           id="feMergeNode875" />
        <feMergeNode
           in="SourceGraphic"
           id="feMergeNode877" />
      </feMerge>
    </filter>
  </defs>
  <g
     filter="url(#blur)"
     id="thunder"
     transform="translate(-15.5,-16.54)">
    <g
       transform="translate(20,10)"
       id="g896">
      <g
         class="am-weather-cloud-1"
         id="g886">
        <path
           d="m 47.7,35.4 c 0,-4.6 -3.7,-8.2 -8.2,-8.2 -1,0 -1.9,0.2 -2.8,0.5 -0.3,-3.4 -3.1,-6.2 -6.6,-6.2 -3.7,0 -6.7,3 -6.7,6.7 0,0.8 0.2,1.6 0.4,2.3 -0.3,-0.1 -0.7,-0.1 -1,-0.1 -3.7,0 -6.7,3 -6.7,6.7 0,3.6 2.9,6.6 6.5,6.7 h 17.2 c 4.4,-0.5 7.9,-4 7.9,-8.4 z"
           fill="#91c0f8"
           stroke="#ffffff"
           stroke-linejoin="round"
           stroke-width="1.2"
           transform="matrix(0.6,0,0,0.6,-10,-6)"
           id="path884" />
      </g>
      <g
         id="g890">
        <path
           d="m 47.7,35.4 c 0,-4.6 -3.7,-8.2 -8.2,-8.2 -1,0 -1.9,0.2 -2.8,0.5 -0.3,-3.4 -3.1,-6.2 -6.6,-6.2 -3.7,0 -6.7,3 -6.7,6.7 0,0.8 0.2,1.6 0.4,2.3 -0.3,-0.1 -0.7,-0.1 -1,-0.1 -3.7,0 -6.7,3 -6.7,6.7 0,3.6 2.9,6.6 6.5,6.7 h 17.2 c 4.4,-0.5 7.9,-4 7.9,-8.4 z"
           fill="#57a0ee"
           stroke="#ffffff"
           stroke-linejoin="round"
           stroke-width="1.2"
           transform="translate(-20,-11)"
           id="path888" />
      </g>
      <g
         transform="matrix(1.2,0,0,1.2,-9,28)"
         id="g894">
        <polygon
           class="am-weather-stroke"
           fill="#ffa500"
           stroke="#ffffff"
           stroke-width="1"
           points="16.4,4.3 20.3,4.3 11.5,14.6 14.9,6.9 11.1,6.9 14.3,-2.9 20.5,-2.9 "
           id="polygon892" />
      </g>
    </g>
  </g>
</svg>
