<?xml version="1.0" encoding="UTF-8" standalone="no"?>
<svg
   viewBox="0 0 337.03622 205.105"
   version="1.1"
   id="svg1064"
   sodipodi:docname="50d.svg"
   width="337.03622"
   height="205.105"
   inkscape:version="1.2.2 (b0a8486541, 2022-12-01)"
   xmlns:inkscape="http://www.inkscape.org/namespaces/inkscape"
   xmlns:sodipodi="http://sodipodi.sourceforge.net/DTD/sodipodi-0.dtd"
   xmlns="http://www.w3.org/2000/svg"
   xmlns:svg="http://www.w3.org/2000/svg">
  <defs
     id="defs1068" />
  <sodipodi:namedview
     id="namedview1066"
     pagecolor="#ffffff"
     bordercolor="#000000"
     borderopacity="0.25"
     inkscape:showpageshadow="2"
     inkscape:pageopacity="0.0"
     inkscape:pagecheckerboard="0"
     inkscape:deskcolor="#d1d1d1"
     showgrid="false"
     inkscape:zoom="1.728"
     inkscape:cx="177.95139"
     inkscape:cy="107.34954"
     inkscape:window-width="1839"
     inkscape:window-height="1051"
     inkscape:window-x="-9"
     inkscape:window-y="-9"
     inkscape:window-maximized="1"
     inkscape:current-layer="svg1064" />
  <g
     transform="matrix(2.742724,0,0,2.742724,0,0.01919781)"
     id="g1062">
    <path
       d="m 28.69,53.38 c -1.61,0 -2.91,-1.3 -2.91,-2.91 0,-1.61 1.3,-2.91 2.91,-2.91 h 51.37 c 0.21,0 0.42,0.02 0.62,0.07 1.84,0.28 3.56,0.8 5.1,1.63 1.7,0.92 3.15,2.19 4.27,3.89 3.85,5.83 3.28,11.24 0.56,15.24 -1.77,2.61 -4.47,4.55 -7.45,5.57 -3,1.03 -6.32,1.13 -9.32,0.03 -4.54,-1.66 -8.22,-5.89 -8.76,-13.55 -0.11,-1.6 1.1,-2.98 2.7,-3.09 1.6,-0.11 2.98,1.1 3.09,2.7 0.35,4.94 2.41,7.56 4.94,8.48 1.71,0.62 3.67,0.54 5.48,-0.08 1.84,-0.63 3.48,-1.79 4.52,-3.32 1.49,-2.19 1.71,-5.28 -0.61,-8.79 -0.57,-0.86 -1.31,-1.51 -2.18,-1.98 -0.91,-0.49 -1.97,-0.81 -3.13,-0.99 H 28.69 Z M 15.41,27.21 c -1.61,0 -2.91,-1.3 -2.91,-2.91 0,-1.61 1.3,-2.91 2.91,-2.91 h 51.21 c 1.17,-0.18 2.23,-0.5 3.14,-0.99 0.87,-0.47 1.61,-1.12 2.18,-1.98 2.32,-3.51 2.09,-6.6 0.61,-8.79 C 71.51,8.1 69.87,6.94 68.03,6.31 66.22,5.69 64.25,5.61 62.55,6.23 c -2.52,0.92 -4.59,3.54 -4.94,8.48 -0.11,1.6 -1.49,2.81 -3.09,2.7 -1.6,-0.11 -2.81,-1.49 -2.7,-3.09 0.54,-7.66 4.22,-11.89 8.76,-13.55 3,-1.09 6.32,-0.99 9.32,0.03 2.98,1.02 5.68,2.97 7.45,5.57 2.72,4 3.29,9.41 -0.56,15.24 -1.12,1.7 -2.57,2.97 -4.27,3.89 -1.54,0.83 -3.26,1.35 -5.1,1.63 -0.2,0.04 -0.41,0.07 -0.62,0.07 H 15.41 Z M 2.91,40.3 C 1.3,40.3 0,38.99 0,37.39 0,35.78 1.3,34.48 2.91,34.48 h 107.07 c 1.17,-0.18 2.23,-0.5 3.13,-0.99 0.87,-0.47 1.61,-1.12 2.18,-1.98 2.32,-3.51 2.09,-6.6 0.61,-8.79 -1.04,-1.53 -2.68,-2.69 -4.52,-3.32 -1.81,-0.62 -3.78,-0.7 -5.48,-0.08 -2.52,0.92 -4.59,3.54 -4.94,8.48 -0.11,1.6 -1.49,2.81 -3.09,2.7 -1.6,-0.11 -2.81,-1.49 -2.7,-3.09 0.54,-7.66 4.22,-11.89 8.76,-13.55 3,-1.09 6.32,-0.99 9.32,0.03 2.98,1.02 5.68,2.97 7.45,5.57 2.72,4 3.29,9.41 -0.56,15.24 -1.12,1.7 -2.57,2.97 -4.27,3.89 -1.54,0.83 -3.26,1.35 -5.1,1.63 -0.2,0.04 -0.41,0.07 -0.62,0.07 H 2.91 Z"
       fill="#7cb9e8"
       id="path1060" />
  </g>
</svg>
